<mxfile host="app.diagrams.net" modified="2023-04-19T10:38:22.689Z" agent="5.0 (X11; Linux x86_64) AppleWebKit/537.36 (KHTML, like Gecko) Chrome/102.0.0.0 Safari/537.36" etag="5Kxy4PDiyHmX3dJh3kst" version="21.0.6" type="github">
  <diagram name="CICD-1" id="wRIC3T-1FBZUXkdpDJP7">
    <mxGraphModel dx="1434" dy="741" grid="1" gridSize="10" guides="1" tooltips="1" connect="1" arrows="1" fold="1" page="1" pageScale="1" pageWidth="827" pageHeight="1169" math="0" shadow="0">
      <root>
        <mxCell id="0" />
        <mxCell id="1" parent="0" />
        <mxCell id="gkkbR6ISmkjzeAiaSCh5-1" value="" style="sketch=0;pointerEvents=1;shadow=0;dashed=0;html=1;strokeColor=none;labelPosition=center;verticalLabelPosition=bottom;verticalAlign=top;align=center;fillColor=#505050;shape=mxgraph.mscae.intune.user_group" vertex="1" parent="1">
          <mxGeometry x="40" y="280" width="50" height="37" as="geometry" />
        </mxCell>
        <mxCell id="gkkbR6ISmkjzeAiaSCh5-2" value="" style="shape=image;html=1;verticalAlign=top;verticalLabelPosition=bottom;labelBackgroundColor=#ffffff;imageAspect=0;aspect=fixed;image=https://cdn4.iconfinder.com/data/icons/socialcones/508/Gitlab-128.png" vertex="1" parent="1">
          <mxGeometry x="170" y="210" width="90" height="90" as="geometry" />
        </mxCell>
        <mxCell id="gkkbR6ISmkjzeAiaSCh5-4" value="" style="sketch=0;html=1;dashed=0;whitespace=wrap;fillColor=#2875E2;strokeColor=#ffffff;points=[[0.005,0.63,0],[0.1,0.2,0],[0.9,0.2,0],[0.5,0,0],[0.995,0.63,0],[0.72,0.99,0],[0.5,1,0],[0.28,0.99,0]];verticalLabelPosition=bottom;align=center;verticalAlign=top;shape=mxgraph.kubernetes.icon;prIcon=master" vertex="1" parent="1">
          <mxGeometry x="410" y="274.5" width="50" height="48" as="geometry" />
        </mxCell>
        <mxCell id="gkkbR6ISmkjzeAiaSCh5-5" value="" style="verticalLabelPosition=bottom;html=1;verticalAlign=top;align=center;strokeColor=none;fillColor=#00BEF2;shape=mxgraph.azure.github_code;pointerEvents=1;" vertex="1" parent="1">
          <mxGeometry x="210" y="420" width="50" height="50" as="geometry" />
        </mxCell>
        <mxCell id="gkkbR6ISmkjzeAiaSCh5-6" value="" style="shape=image;verticalLabelPosition=bottom;verticalAlign=top;imageAspect=0;aspect=fixed;image=data:image/png,iVBORw0KGgoAAAANSUhEUgAAAJYAAACWCAYAAAA8AXHiAAATSUlEQVR4Xu1dfYwcxZWv6uleAzkCUTCJArk4YIx35xTQRbpIOd0duvvndDldSKJ8KVFiOJ9BBpt1MMbenbVn7Zm1Dcb4IxAwXyZfCkRRSBSi/EOEueOknI4ITpkdYz5CPi66AxJhcmB7u6frftU7M9s705/V3bO9va+lBe9O1avq935T9eq9V+9xRg9xIAMO8AxoEkniACNgEQgy4QABKxO2ElECFmEgEw4QsDJhKxElYBEGMuEAASsTthJRAhZhIBMOELAyYSsRJWARBjLhAAErE7YSUQIWYSATDhCwMmErESVgEQYy4QABKxO2ElECFmEgEw4QsDJhKxElYBEGMuEAASsTthJRAhZhIBMOELAyYSsRJWARBjLhAAErE7YSUQIWYSATDhCwMmErESVgEQYy4QABKxO2ElECVgQMlHeLlaJlHZZNW0Jf//wE/2WEbku6CQErQPyX7xXnlkyryjnbgGaGbCoYO4P/3PGGpdd/V+VvL2n0BLw8AcuLOULwcq21lmmijo+X+/Dvt4Lxm6fH9UcJXP0cIGD18KQ8Zf4ls8VdjPMr5j4SL9tC26wJcZJxcQSfXerq9rTJ9bUnxvhxAtgcBwhYbV6s3CsuXmaa+wCaz3bZI5jc6nY1KsYeN2iG6+a4xlhtrp34RqMy9CUCFgGry4EVVXHWOYa1Fd+wHfOBIb7OTOPWRpX/jxdgynvEnzLL3N5i/MHjFePfCVTzObCkV6zhuvU5Tdi3YZV6v2vbe8ZmxrrmOP85gUWdA0sSWJfXxYdKzDqCl/9Ih3U47f0OOvvW5njpmwAafqUnCQeWFLBWVcUFhmHuBoCuhQkBahLMB4Kdxv/2p24+wCDD9dYXObMnBOcPm+fq+17cyM8kEdZi6rtkgAWF+xasQ9sBqD+ZW6XEo0IYW5oV/qu0hVauWThZivWusX4thIax9EfSHiuP9AoPLOhRH8OqsZ8zvqorZCEasEGtb1aMpzITClaskanWF7gQe5Dp9SLXOE9bDNb7cf5fmY2dA8KFBZbjhrGte/CCfzcHKPa60MT25oxxL6tyexD8f19VnPMunDox1mb8nN3efm2sZkfPmMa2l6r81UHMY9BjFA5Y0g2jW9YkGHkjfhw3DFwwFlaNu06V9B0vb+UnB81kOZ6XnQwnhD9CAPWzLtD3P3MdNxdiXlmNWRxgVYVWNsy1jHFpuOy6YSC8J7imX9/Yxl9UZeLq3WKFZlt3yv62pm86vo2/okqrXJv5C/SV1vs+yz70r++r0s1bv0IAa3XN/KjGxBHOedmlR71ga9pXjo/pP1JlOoyn58N4ehOU/lGseOe3V783BGcH3jb1g69U+RtKtKX+VWutwXY4hcPEe100jjGur2+M8WklujnqtKiBJbeXIdPaD+F8eg5Q7E38e9fZy/WDSbYXnOq+LLhdhdK/wktegolXuNCqjYr+sKo8P3S7eId1xqoAtJsgiGVtOi0cLO63zFLlRJW/rkp7ofstSmBJhfh83boVgLoFDOwqxJyJh0zL2JpEIOW6uJIJbHucXRVJOII9CSRMHp8wnozU3qPRcE18QOPWfnz0SdfHJ6Eb7mxY+iEcNCxV2gvVb9EBCyvJ57GF3AaGXdxdpRj7WYvp65Ic4We3PfNOrFBrVISBFezo26axSXl7xKCeWzoTJ2yu3ZxkS1d5n6R9Fg2wvNwwMJv/Bkzf0hzXv5OEESN1c8c8PUqVmGCO/jU9bshTqdrTOYQIvgur5oWuL88TLVu/AdGrz6sRHmyv3ANLumF0w9zLBF/TccOARadw2rsNCvQerBDSJaP0DE9ZV3Nhy1VqhRIBn05S/xJc29Qc0x9TpduOXt2O/hvx3kMOHZhNoH/dw63SDkRd/EGV9iD65RZYH75XGKdes24CEybA2Hd2mSHEI2cMY/OLt/LfqjJImg9KLeuhyHqUykBCPNcqGVcnMU3IYVftFpfoMHVAUP/UXb0E+wPUger0Zcbd7DO8pTK9rPvkElirp6x/1Gy4YTi/zAWo5xD7tD5J7JPUo96hWzsAqNEMGQsDLB9tjOtH0xxjuGb+tcbFvaC9eo6uOM5sfkNjwvhpmmOlQStXwPJyw2D5f9XmfLw5VnogSTjLcH3mJk3watcelQb3+mkcfMvUq0kU+MBpPSpKwyfM6/CF2wnBvdvV9nHb1jc1J/gL2bxWfKq5AVa5PrMO30Z8I13fR8H2tQx95/O38j/Gf7XZHqt3mVdpmngobT2qZz7HWpq+Jmjbm7PeixW2zTclMU9cskecd7ZlyS9Jz8orrmuMDx1R5VWa/fIDrNqMdHP8S/vlHjc1feOJbfxl1ZftCBIveLUqjbB+Qohf2ThUBIGka71nrDrvSwPzhK0Zk0l0sL4VXoj7EHuPL+jCP7kEVmPcUJ6XnyBTZvVJW4hqszJ0IIhumPUe23xy9xAmUK6bsxGvBKx+ccA5212xVIElBQnuHshUjxLi4bcsYzRIj5Lbb4njckZE631S9xABK+DrnQRYbT1K2qOuTHllcpM7xpiO0x5/1m+M2e0XxlZF6z1WMCX3EAErZWAlFmQEFEo9SmjaaJixMzXrvdzRYupfBKyUgOUZzhIBJDGbnITiIsNjDgRte1lZ7+PoXwSslIA1UjMfgzX+4zGBEr059ChYzatBJ7bYURDRR5/XEreIfjBdMQJPtgSslIAFRj4JUn+jKKugbsdaNquGmQ8GYL2fnSNOjTgAPIfDzFWBp086FfqzJ47yngGwIrlhBmS97wBqNmKVsWMErARLyEIBC3rUZJgeNSDrfS+gOtwkYCXAFRs0sKTuYpf00TA3TOZREHNbXmeF6mUjAWtRAEuGswg+GqZHOZcoetwwSd7Pt++sHuUHKtoKkzJ9ACtWZDdM5tb78FXKzU5asZKAK1NgYZWCG+aqMDcMoiCytt776VGBJ1VS3hMgKyawpPNXRpdGfXy/9YOIgnCZDoK2PO93gU0NEQtryNwQVdQ97eIAS3Z1TmrIf4Cgtw9EGLIPWAOy3s9OLVyP6nuFqK4k2ZEMpAEIiAusDqnh2syoxhEZyth5AeT7gAXfHi6j9qaHjADR7Js4riTc9JHvFOkhYGUALEnSiWU3EFHpvz0OElgy6UgQyP25ECEkx6szASsjYHXIOrdvbOsofu919wwCWOqAgnU9LCQnaOkiYKUELGybNzLL+Lbf3ToP/StLYCkDKkyPurQqLlw2ZH5iemxo3l2AXjYSsFIC1kh95hlcYF0RdrfOpX8923tkT0nHUgVVoB618pBYZrwJAy1nFeiBPydzQyRV07tRHOVdAgtRmn8+Syn4bt2s/tW6uveeXyRg+Z/mVAEl49IDQ5txp/KTJWHfjhtLl7Q5RQbSBLiK5SucD6zuqLHu1kUCVof0HMDUARWiR8ncFDqzDkXRD2krjIE09RVr3iAy3eJXkRJyMiwlZCxgxXiP3qZR9KizDLPuThHeQ4NWrAT8T2PF6g6PyAUkLBMT05ZxxC+JrQwpRtGlLFMzBoY29+hR5wbwjoCVF2B1d7CQtNuOO6dlHUg9zDkktNlDjwpiHQFrUMDCdfz/hHL74ajjydgrTeg3/2KCv+TVZ/YeoLyP6E44G5X6vHaBoc3lneIKVrIOeuhRBCwldkfoFEvHqpkHscpsjEB2XhPkljps89Lk8TH+e6++5bq1xgmZiWk5l3oU58hH6pNhRtqjpB6FLwOyOsd+9sLcIPPE+z5kxwpiTsyb0F5pFaOIDKvXmwDlFDP1O2Fgnent03ZOj0b0I6alR/VPHaE++OM6RDb8R9h7EbBSBFaHlMxSg5VoqietT5gspD3pN4Jp26Yr+rc8t8cw/StEj8J1/08hK/zt2F4/GD6ZuRZwQGM15VtQEvjBqP0IWBkAS5L0TKsYUSoQ5M8Eatv41Sf00L8C9agAe1TgjLCSytXzkEraJgJWRsDqkPVKqxgFXwCXQDGlr5+2jC1+tW1m3UPaG2F6VIA9KmgqidI2EbCiSDlCGynkU5Zx1C/U2DutYjhhrBr/h4sNUzPn6vuj1haMYY/qmwCU/he44Nf7pXpsR7euCYvNImCFyzZSC+fCqmBXBKa+9k+rGD6GEL9kTLsFVSe+F9Q4pj3KTQquITHZMI3DXsUBenKlkh0rXGLptHDfhJa5pZB68Rq/61xOWsWWUw0sTox8Z6LHREu/YXo7b7hnrmiPckjgoHFvUDkTjxxfBKx0YBNOxfOKvcwtVdKv8buAWp4SI8y27sNW99HwEXpaIFMeSqmMIe+1FuLXCyIdWAAzIMcXASu2wBQ7BOZuEOzAW5Y+6ad/OekbmdgHW9YFcYaX9i+AEt1YkF+vn6Rg/42sz5v9qmdEuCVEwIojqCRtQ5OCIMzFRoL95viQdJ/0PbPbYwuWcHFDknmE9W3nhfCsnhEjVyoBK4zRaX0eCqz2QGH61+W7xOUlzboLq1C3vG8ac8S4j87oxs1+1TNCk97OnwQBKw2hRKERFVhdWiH6l2cljCgT6VPFRAPFntf5Vc+Im/S2TZ6ApSCLbpc4Tmi0PQptBxmS4z3Ymqp+lVFl7Z7Tr1kboEfJwkhxr2+9hm21AvPB/V7xXwlzpR6EEzqwRAvZsQJwEAdYkoyT+9O2EUsV6Sb03MgyzFjWuvGpjNquNlaHLX6tq9qY98xlEXNErFqGvt2veoZq0tsoxQk6kyJgpQisDql2iLH8RsdaZaAHPRtUesQxTwjrbtD1TEkZVsQ8QdLbSFlx3KwkYGUALEly1lJtykA9le3xsaDK9L3WdemGCSpinjDprVKRJwJWRsDqkHWUY82pWRM78W2Q/iXpl2vmVpuzVnPcwNWs/idh6d/QIk9B2iQBKyKwYIz8CS/pGxrb+Ivx1PPZ1jISVAhUoE9Z//KbSxI9KkpxAr9xnSJNLeswdMG/d9pQLZ1+VqVdVs4VCZq6/uVeIRVL1sXOKOPmWCf+DIDaPJ+TVFbO80voVwgTJ7RKo1K6X6UQ5myZXhO1/dLTvxKV/lXMKNNekfjIVOsazsQUfn9Ph4lhBwmVVT9pH+XybUkHDuo/XLc+5hQBd5Xulac4/H5jY8x4WmXsNPQvOW6C4gGJMsqsqomLdG7+cC61gLP1vWRz7Sb4IR9X4UmWfXIJLPnCWRUbV72J42Tlk09whuM+WYXdhI4j3I6HAKvve6GH1s5Zrt/5zHVc3v7O3ZNbYHU4tXJKLB8S5h58U691cy/IwRvG5Zg3ccLI+X0eqciTCvE/q4v3/GKc/69K30H1yT2wOoyQlxRKzDqCCX9kTrcQvxZC29Ks6I+oMGyhbkKrzHWx9Vk0wOowdqRmfQHK615sSRfNAYz9K2/BPLGdy7t4sZ9B3YQOm5iMTLU167xmxXgqrG3eP190wJIMxVZ21jm6tQ3H7Vvw69nyb9A5YL8UD8hIzxNVjqQg8R9l/YuxSEWe/GYk/ZOGbk4hbPmfpX8yLOwm/psNvseiBFaHTSv3iouHLPMO6F+fcbHuJBTtnQ1LP+R1USGMxXH1ryhFnnzHrAq9rFsbeyMq8CX57oyhf8UvnivsHfLw+aIGVoeBXtftw65WhTE/TP+KUuQpaIzyLvNvcZnxnnkmFWTHCYrnCptznj4vBLAchlaFVjZMJN3gNfy2vMNkAODHQuijzQn+ggrj+/SvCEWegsYZ3iUu49xJnfQPrnaB8Vwq817oPsUBVpuT0t2hW851rxvxY7T/bAJgh3F9veoXNxUmCHlJVrZpVoZkNprYT9sNA/8l2+CeF/79VUvXd6jOK/ZEBtShcMDq8C0L95CSTHDnvlxrrUWG5xp0qQu7KyljT3BNv17V0a40lwF2KiywOjx03EPM3g8Ff1WXr3I7Y3y9X2x6WvyXul+JibvdCd1w4jshbG1Tc0L/cVrj5JFO4YElme64h17H6Uuw7diK3ukC2CNnDGNz2qcveVpdZpr7AKjPuoQuLfG7pk39oMppNY/gCZrTkgBWhwFte9Ee2IuuccWzn4LA9+KSxV5ccj2dRICOfc2wtoKpW0Bnzr7GxYOmaWxTta8lmdNC9V1SwOowOQv3ELbcz2nCvg2r1Ptdwgy8Vr9QQh/EuEsSWC79KzEYsgDpIASf9RhLGliSuaruIWdbNczdPYnWUttWsxZ81vSXPLA6DI7sHoIbZgQV7gd1EMgaAFnRJ2D1cHZkyvwreLQPwTxxZecj6R5iiNTkSFYKX/cdfZGtgm9oVIx/y0pIi5EuActLaj7uoXlNBXsV6YnGm2OlB1Ri8RcjWOLMmYAVwC1f95DMbqzrk0Vzw8QBTlhbAlYYh/C54zjWrK+BWadtW4fVXM2hHWGowjQhYBVGlPl6EQJWvuRRmNkQsAojyny9CAErX/IozGwIWIURZb5ehICVL3kUZjYErMKIMl8vQsDKlzwKMxsCVmFEma8XIWDlSx6FmQ0BqzCizNeLELDyJY/CzIaAVRhR5utFCFj5kkdhZkPAKowo8/UiBKx8yaMwsyFgFUaU+XoRAla+5FGY2RCwCiPKfL0IAStf8ijMbAhYhRFlvl6EgJUveRRmNgSswogyXy9CwMqXPAozGwJWYUSZrxchYOVLHoWZDQGrMKLM14sQsPIlj8LM5v8B67HhLXPSINwAAAAASUVORK5CYII=" vertex="1" parent="1">
          <mxGeometry x="290" y="80" width="150" height="150" as="geometry" />
        </mxCell>
      </root>
    </mxGraphModel>
  </diagram>
</mxfile>
